<svg id="Layer_1" enable-background="new 0 0 512 512" height="512" viewBox="0 0 512 512" width="512" xmlns="http://www.w3.org/2000/svg"><g><path d="m461.572 428.494c-4.138-.189-7.646 3.012-7.834 7.15-.857 18.792-1.901 37.371-3.102 55.22-.103 1.527-1.373 2.75-2.955 2.844-43.226 2.561-147.848 3.413-191.718 3.279-43.824.136-148.448-.718-191.673-3.279-1.582-.094-2.853-1.316-2.955-2.843-3.966-58.971-6.095-123.784-6.328-192.642-.014-4.133-3.369-7.475-7.499-7.475h-.026c-4.143.014-7.488 3.383-7.475 7.525.234 69.175 2.375 134.31 6.361 193.598.609 9.044 7.933 16.27 17.035 16.81 43.55 2.58 148.62 3.439 192.56 3.305 2.87.009 5.994.013 9.351.013 48.079 0 142.546-.907 183.254-3.318 9.103-.539 16.426-7.766 17.035-16.811 1.207-17.956 2.257-36.643 3.119-55.543.189-4.137-3.012-7.644-7.15-7.833z"/><path d="m465.555 59.117c-.55-9.116-7.871-16.399-17.03-16.941-11.031-.653-26.01-1.195-42.943-1.639v-33.031c0-4.142-3.357-7.5-7.5-7.5s-7.5 3.358-7.5 7.5v32.672c-17.962-.39-37.318-.684-56.048-.894v-31.776c0-4.142-3.357-7.5-7.5-7.5s-7.5 3.358-7.5 7.5v31.624c-21.371-.194-41.135-.278-56.048-.271v-31.359c0-4.142-3.357-7.5-7.5-7.5s-7.5 3.358-7.5 7.5v31.358c-14.926-.009-34.686.074-56.048.269v-31.625c0-4.142-3.357-7.5-7.5-7.5s-7.5 3.358-7.5 7.5v31.777c-18.732.21-38.087.505-56.048.896v-32.677c0-4.142-3.357-7.5-7.5-7.5s-7.5 3.358-7.5 7.5v33.035c-16.933.445-31.912.988-42.943 1.641-9.159.542-16.48 7.826-17.03 16.942-1.713 28.436-5.763 105.112-6.358 202.714-.025 4.142 3.313 7.52 7.454 7.546 4.146.037 7.521-3.312 7.546-7.454.279-45.737 1.319-86.853 2.52-120.524h42.934c4.143 0 7.5-3.358 7.5-7.5s-3.357-7.5-7.5-7.5h-42.372c1.202-30.441 2.468-53.433 3.248-66.38.093-1.543 1.359-2.777 2.944-2.871 10.814-.64 25.47-1.173 42.057-1.611v30.808c0 4.142 3.357 7.5 7.5 7.5s7.5-3.358 7.5-7.5v-31.167c17.932-.391 37.295-.686 56.048-.896v32.067c0 4.142 3.357 7.5 7.5 7.5s7.5-3.358 7.5-7.5v-32.22c21.351-.194 41.118-.277 56.048-.27v32.487c0 4.142 3.357 7.5 7.5 7.5s7.5-3.358 7.5-7.5v-32.487c14.921-.009 34.69.074 56.048.268v32.226c0 4.142 3.357 7.5 7.5 7.5s7.5-3.358 7.5-7.5v-32.074c18.751.211 38.115.506 56.048.897v31.175c0 4.142 3.357 7.5 7.5 7.5s7.5-3.358 7.5-7.5v-30.815c16.586.438 31.243.972 42.057 1.612 1.585.094 2.852 1.328 2.944 2.871.765 12.703 2.038 35.764 3.249 66.38h-318.806c-4.143 0-7.5 3.358-7.5 7.5s3.357 7.5 7.5 7.5h319.37c2.347 65.666 4.091 159.635.712 259.687-.14 4.14 3.104 7.609 7.243 7.749.086.003.172.004.258.004 4.024 0 7.354-3.193 7.491-7.247 5.361-158.764-2.123-302.273-4.545-342.476z"/><path d="m172.202 323.138c-3.582 1.047-5.849 4.568-5.319 8.262.528 3.694 3.692 6.437 7.424 6.437h80.992c4.143 0 7.5-3.358 7.5-7.5s-3.357-7.5-7.5-7.5h-45.311c2.934-1.664 5.931-3.479 8.932-5.45 28.706-18.854 43.879-42.979 43.879-69.765 0-26.465-21.531-47.996-47.996-47.996s-47.996 21.531-47.996 47.996c0 4.142 3.357 7.5 7.5 7.5s7.5-3.358 7.5-7.5c0-18.194 14.802-32.997 32.996-32.997s32.996 14.802 32.996 32.997c-.001 52.666-74.847 75.296-75.597 75.516z"/><path d="m329.243 337.837c4.143 0 7.5-3.358 7.5-7.5v-123.212c0-3.451-2.355-6.457-5.706-7.282-3.354-.825-6.833.743-8.436 3.798-18.25 34.792-41.502 47.329-41.802 47.488-3.664 1.903-5.103 6.412-3.213 10.086 1.895 3.684 6.418 5.133 10.101 3.239.87-.447 17.146-9.019 34.056-31.428v97.311c0 4.142 3.357 7.5 7.5 7.5z"/><path d="m156.451 397.808c0 4.142 3.357 7.5 7.5 7.5h183.037c4.143 0 7.5-3.358 7.5-7.5s-3.357-7.5-7.5-7.5h-183.037c-4.143 0-7.5 3.358-7.5 7.5z"/><path d="m198.951 432.337c-4.143 0-7.5 3.358-7.5 7.5s3.357 7.5 7.5 7.5h83.037c4.143 0 7.5-3.358 7.5-7.5s-3.357-7.5-7.5-7.5z"/><circle cx="311.983" cy="439.837" r="7.5"/></g></svg>