<?xml version="1.0" encoding="iso-8859-1"?>
<!-- Generator: Adobe Illustrator 21.0.0, SVG Export Plug-In . SVG Version: 6.00 Build 0)  -->
<svg version="1.1" id="Capa_1" xmlns="http://www.w3.org/2000/svg" xmlns:xlink="http://www.w3.org/1999/xlink" x="0px" y="0px"
	 viewBox="0 0 512 512" style="enable-background:new 0 0 512 512;" xml:space="preserve">
<circle style="fill:#4A7AFF;" cx="256" cy="256" r="256"/>
<path style="fill:#2864F0;" d="M512,256c0-4.589-0.127-9.148-0.365-13.677L383.836,114.524l-47.592,1.16l49.715,49.715
	l-14.635,14.635l-50.202-50.202L98.374,282.614l31.105,31.104l-31.332,44.138l37.664,37.665l-5.518,4.153L242.249,511.63
	c4.554,0.241,9.137,0.37,13.751,0.37C397.385,512,512,397.385,512,256z"/>
<polygon style="fill:#FFFFFF;" points="321.121,276.638 95.323,276.638 95.323,102.553 163.588,102.553 193.673,129.832 
	321.121,129.832 "/>
<rect x="209.14" y="129.83" style="fill:#F2F6FC;" width="111.98" height="146.81"/>
<path style="fill:#FFD400;" d="M298.745,290.047H117.673c-15.839,0-28.699-12.802-28.771-28.641L88.5,172.833h95.511l32.022-29.592
	h111.912l-0.428,118.139C327.459,277.229,314.595,290.047,298.745,290.047z"/>
<path style="fill:#FFB000;" d="M216.033,143.241l-6.89,6.367v140.439h89.602c15.849,0,28.714-12.818,28.771-28.667l0.428-118.139
	H216.033z"/>
<polygon style="fill:#FFFFFF;" points="425.744,381.261 199.946,381.261 199.946,207.176 268.211,207.176 298.296,234.454 
	425.744,234.454 "/>
<rect x="313.31" y="234.45" style="fill:#F2F6FC;" width="112.44" height="146.81"/>
<path style="fill:#FCAF03;" d="M403.368,394.67H222.296c-15.839,0-28.699-12.802-28.771-28.641l-0.402-88.573h95.511l32.022-29.592
	h111.912l-0.428,118.139C432.082,381.852,419.217,394.67,403.368,394.67z"/>
<path style="fill:#FFA300;" d="M320.655,247.863l-7.346,6.789V394.67h90.059c15.849,0,28.714-12.818,28.771-28.667l0.428-118.139
	H320.655V247.863z"/>
<path style="fill:#B4F5F0;" d="M413.854,154.144l-12.74,12.74v-8.329c0-35.77-29.101-64.871-64.871-64.871v22
	c23.639,0,42.871,19.231,42.871,42.871v8.331l-12.741-12.742l-15.557,15.557l39.297,39.296l39.297-39.296L413.854,154.144z"/>
<path style="fill:#CBF7F7;" d="M132.886,353.445v-8.331l12.741,12.742l15.557-15.557l-39.297-39.296L82.59,342.299l15.557,15.557
	l12.74-12.74v8.329c0,35.77,29.101,64.871,64.871,64.871v-22C152.117,396.316,132.886,377.084,132.886,353.445z"/>
<g>
</g>
<g>
</g>
<g>
</g>
<g>
</g>
<g>
</g>
<g>
</g>
<g>
</g>
<g>
</g>
<g>
</g>
<g>
</g>
<g>
</g>
<g>
</g>
<g>
</g>
<g>
</g>
<g>
</g>
</svg>
